<svg enable-background="new 0 0 578 222" viewBox="0 0 578 222" xmlns="http://www.w3.org/2000/svg"><g fill="#fff"><g><path d="m502 117.7c-22.9 0-41.5 18.6-41.5 41.5s18.6 41.5 41.5 41.5 41.5-18.6 41.5-41.5-18.6-41.5-41.5-41.5zm-.4 66.2c-12.9 0-23.4-10.5-23.4-23.4s10.5-23.4 23.4-23.4 23.4 10.5 23.4 23.4c0 13-10.5 23.4-23.4 23.4z"/><path d="m501.6 155.6c-2.8 0-5.1 2.3-5.1 5.1s2.3 5.1 5.1 5.1 5.1-2.3 5.1-5.1-2.3-5.1-5.1-5.1z"/><path d="m415.5 117.7c-22.9 0-41.5 18.6-41.5 41.5s18.6 41.5 41.5 41.5 41.5-18.6 41.5-41.5-18.6-41.5-41.5-41.5zm20.4 63.4-16.4.4-8.6-11.8.1 11.2-17.5.4-1.8-41.6 19.5-.3 7.3 18.5-.9-17.9 20.1-.7z"/><path d="m329.1 117.7c-22.9 0-41.5 18.6-41.5 41.5s18.6 41.5 41.5 41.5 41.5-18.6 41.5-41.5-18.6-41.5-41.5-41.5zm9.4 62.7-16.4.4-1.9-41.6 20.1-.7z"/><path d="m242.6 117.7c-22.9 0-41.5 18.6-41.5 41.5s18.6 41.5 41.5 41.5 41.5-18.6 41.5-41.5-18.5-41.5-41.5-41.5zm-20.8 61.8 3.1-14.8s19.6 5.9 19.9 2.6-26.6-1.3-21.6-19.2c5.2-18.8 40.9-8.1 40.9-8.1l-5 13.8s-16.9-5.1-17.2-1.9c-.3 3.7 22.9 0 22.3 17.5-.6 21.7-42.4 10.1-42.4 10.1z"/><path d="m156.2 117.7c-22.9 0-41.5 18.6-41.5 41.5s18.6 41.5 41.5 41.5 41.5-18.6 41.5-41.5-18.6-41.5-41.5-41.5zm10.8 63.1-3-7.3-13.1.2-2.2 6.6-15.9-.5 12.1-41.1 22.1-.1 16.6 41.7z"/><path d="m154 163.5h6.8l-4.1-10.7z"/><path d="m69.8 117.7c-22.9 0-41.5 18.6-41.5 41.5s18.6 41.5 41.5 41.5 41.5-18.6 41.5-41.5-18.6-41.5-41.5-41.5zm16.2 48.4 3.6 12.3s-5.9 3.8-18.4 3.8c-12.3 0-24.8-6.8-24.8-21 0-11.2 10.8-25 26.9-25 14 0 20.7 4.2 20.7 4.2l-7.7 13s-19.2-5.4-19.2 7.2c0 9.1 18.8 5.5 18.9 5.5z"/></g><path d="m469.9 89.8c0 23.9-79.2 19.4-79.2 19.4l-4.2-79.3s76.6-7.9 76.6 18.1c0 13.8-15.6 19.2-15.6 19.2s22.4 1.2 22.4 22.6zm-50.5-43.3-.4 10.2s14.1 1.1 14.1-3c-.1-9.2-13.7-7.1-13.7-7.2zm-1.4 33.1-.7 12.4s18.2 1.4 18.2-4.7c.1-11.3-17.5-7.7-17.5-7.7z"/><path d="m277.9 106.1c.4-2.6 9.9-70.6 10.2-72.9l33.7 2.1 11 28c.2.5.7.9 1.3.9h.1c.6-.1 1.1-.5 1.2-1.1 0 0 5.2-26 5.6-27.8l31.9-4.3c.5 2.3 15.9 73.1 16.5 76l-24.6 2.2-11.1-32.4c-.2-.6-.7-.9-1.3-.9s-1.1.4-1.3 1l-8.6 28.3-14.6.3-13.2-29.8c-.2-.5-.7-.8-1.2-.8h-.1c-.6 0-1.1.4-1.2 1 0 0-9 31.8-9.6 34z"/><path d="m225 110c-3.2-.5-6.3-1.4-9.3-2.7-2.6-1.1-5-2.4-7.3-4.1-2-1.5-3.9-3.3-5.5-5.3-5.5-6.9-8.3-16.6-8.3-28.7 0-5 .4-9.9 1.2-14.8.7-4.3 1.6-8.6 2.7-12.9 1.4-5.4 2.8-9.5 3.5-11.4l30 7.3c-.8 2-2.2 6-3.7 10.8-1.2 4.1-2.2 8-2.9 11.7-.8 4-1.3 8.1-1.3 12.2 0 14.1 7.1 17.1 13.1 17.1 2.2 0 4.4-.5 6.3-1.5 1.7-1 3.1-2.5 4.1-4.2 1-1.9 1.7-3.9 2.1-5.9.4-2.3.6-4.7.6-7 0-4-.4-8-1.1-12-.6-3.5-1.4-7.4-2.4-11.3-1.1-4.5-2.3-8.2-2.9-10.1l28.9-3.4c.6 1.7 1.7 5.3 2.8 10 .9 3.9 1.6 7.7 2.2 11.5.6 4.4 1 8.9 1 13.4 0 12.3-2.8 22-8.2 29.1-1.6 2-3.4 3.9-5.5 5.5-2.2 1.7-4.7 3.1-7.3 4.2-3 1.3-6.2 2.2-9.4 2.8-3.9.7-7.8 1-11.7 1-4-.3-7.9-.7-11.7-1.3"/><path d="m159.9 86.4c0-.7-.6-1.3-1.4-1.3l-14-.1c-.7 0-1.3.6-1.4 1.3 0 0-1 17.2-1.1 19.5l-29.8.6c-.1-2.5-3.1-71.6-3.2-74.2l36.7-.5c-.1 2.7-1.6 33.2-1.6 33.2v.1c0 .4.1.7.4 1s.6.4 1 .4l11.8-.5c.7 0 1.3-.6 1.3-1.4v-.1s-1.5-29.2-1.6-31.7l34.3-1.2c-.1 2.8-3.1 72.4-3.2 74.8l-27.7.6c-.1-2.3-.5-20.4-.5-20.5"/><path d="m111.3 34.8-14.3 24s-35.6-9.9-35.4 13.3c0 16.9 34.8 10.3 34.8 10.3l6.7 22.8s-10.9 7-34 7c-22.8 0-45.9-12.7-45.9-38.8 0-20.7 20-46.3 49.8-46.3 25.7-.1 38.3 7.7 38.3 7.7z"/><path d="m518.8 96.8c-.2-.5-.7-.8-1.3-.8l-24.2.4c-.6 0-1.1.4-1.3.9l-3.7 11.3-26.7-.8 21.6-73.4 39-.2c.7 1.6 28.3 71 29.7 74.5l-28 .6c-.6-1.4-5.1-12.5-5.1-12.5m-15-39.3c-.6 0-1.1.4-1.2 1l-5.1 20v.3c0 .8.6 1.4 1.4 1.4l12.6-.1c.4 0 .9-.2 1.1-.6.2-.2.2-.5.2-.8 0-.2 0-.3-.1-.5l-7.6-19.9c-.2-.5-.7-.9-1.3-.9z"/><path d="m527.7 51.7c-.3-.6-.8-.9-1.5-.9-.2 0-.3 0-.5.1l-4.2 1.4 1.4-4.2c.1-.2.1-.3.1-.5 0-.6-.4-1.2-.9-1.5l-13.2-6.6 13.2-6.6c.6-.3.9-.8.9-1.5 0-.2 0-.4-.1-.5 0 0-.7-2.2-1.4-4.2l4.2 1.4c.2.1.3.1.5.1.6 0 1.2-.4 1.5-.9l6.6-13.1c2 3.9 6.6 13.1 6.6 13.1.4.7 1.2 1.1 2 .8l4.2-1.4-1.4 4.2c-.1.2-.1.3-.1.5 0 .6.4 1.2.9 1.5l13.1 6.6-13.2 6.5c-.6.3-.9.8-.9 1.5 0 .2 0 .4.1.5l1.4 4.2-4.2-1.4c-.8-.3-1.6.1-2 .8 0 0-4.6 9.2-6.6 13.1z"/></g></svg>